Coordinates
version=1
nRows=13
nColumns=38
inDegrees=no

Units are S.I. units (second, meters, Newtons, ...)
If the header above contains a line with 'inDegrees', this indicates whether rotational values are in degrees (yes) or radians (no).

endheader
time	pelvis_tilt	pelvis_list	pelvis_rotation	pelvis_tx	pelvis_ty	pelvis_tz	hip_flexion_r	hip_adduction_r	hip_rotation_r	knee_angle_r	ankle_angle_r	subtalar_angle_r	mtp_angle_r	hip_flexion_l	hip_adduction_l	hip_rotation_l	knee_angle_l	ankle_angle_l	subtalar_angle_l	mtp_angle_l	lumbar_extension	lumbar_bending	lumbar_rotation	arm_flex_r	arm_add_r	arm_rot_r	elbow_flex_r	pro_sup_r	wrist_flex_r	wrist_dev_r	arm_flex_l	arm_add_l	arm_rot_l	elbow_flex_l	pro_sup_l	wrist_flex_l	wrist_dev_l
1.68	0.199415	1.28682	-1.73974	0.753928	-0.064379	1.08052	-0.284413	-0.160839	-0.136178	0.887014	-0.330273	0	0	-0.0278273	-0.0337659	-0.292431	0.488963	-0.267643	0	0	-0.343267	-0.0245408	-0.0112493	0.485856	-0.517166	0.633475	1.12649	0.580341	0	0	0.299358	-0.45336	0.190005	1.04615	0.740865	0	0
1.69	0.189725	1.28295	-1.72997	0.757911	-0.0737569	1.08223	-0.268786	-0.163825	-0.125915	0.923291	-0.372876	0	0	-0.0395411	-0.0348198	-0.307606	0.498005	-0.269934	0	0	-0.35046	-0.0205514	-0.0145404	0.489294	-0.517675	0.63326	1.12779	0.579946	0	0	0.30187	-0.453702	0.191534	1.04511	0.738828	0	0
1.7	0.177118	1.2793	-1.7169	0.761866	-0.0829471	1.0839	-0.252334	-0.164519	-0.115308	0.960039	-0.407142	0	0	-0.0517645	-0.0367642	-0.321957	0.505953	-0.270962	0	0	-0.357877	-0.0153313	-0.0176902	0.492941	-0.518238	0.633027	1.12929	0.583804	0	0	0.304947	-0.456108	0.195976	1.04488	0.738556	0	0
1.71	0.161936	1.27572	-1.701	0.765767	-0.0919613	1.08554	-0.235617	-0.162964	-0.104777	0.994968	-0.455197	0	0	-0.063854	-0.0402857	-0.336094	0.51386	-0.275609	0	0	-0.364768	-0.00880344	-0.0222494	0.503669	-0.521709	0.647113	1.12914	0.572533	0	0	0.30651	-0.458083	0.197879	1.04555	0.73141	0	0
1.72	0.14814	1.27366	-1.68636	0.769528	-0.100881	1.08697	-0.216662	-0.160051	-0.0935783	1.0303	-0.48571	0	0	-0.0743146	-0.0437266	-0.346371	0.519447	-0.279446	0	0	-0.370206	-0.00282942	-0.0258543	0.509422	-0.523258	0.651045	1.1302	0.572533	0	0	0.308753	-0.459701	0.199687	1.04615	0.72706	0	0
1.73	0.136304	1.27278	-1.67349	0.773134	-0.109692	1.0883	-0.195882	-0.156242	-0.0826961	1.06421	-0.511145	0	0	-0.0835315	-0.0465389	-0.352525	0.521937	-0.285068	0	0	-0.374321	0.00241385	-0.0294324	0.513657	-0.523591	0.652182	1.13096	0.571172	0	0	0.311036	-0.461932	0.201752	1.04725	0.723027	0	0
1.74	0.124729	1.27225	-1.6604	0.776619	-0.11844	1.08961	-0.175086	-0.150739	-0.0725844	1.09541	-0.520204	0	0	-0.092036	-0.0495584	-0.356473	0.523284	-0.290142	0	0	-0.377879	0.00755342	-0.0332454	0.51603	-0.522635	0.651066	1.13179	0.568709	0	0	0.313184	-0.464518	0.203708	1.04876	0.719911	0	0
1.75	0.113042	1.27178	-1.64694	0.780001	-0.127127	1.09095	-0.155328	-0.143055	-0.0621657	1.12283	-0.511058	0	0	-0.100507	-0.0523412	-0.35824	0.523891	-0.294316	0	0	-0.38132	0.012674	-0.0367867	0.51864	-0.521623	0.651131	1.13196	0.568706	0	0	0.315604	-0.467035	0.205738	1.05023	0.716612	0	0
1.76	0.102201	1.2713	-1.63403	0.783342	-0.135821	1.09234	-0.136698	-0.134195	-0.0523	1.14694	-0.485649	0	0	-0.109055	-0.0546482	-0.359456	0.525201	-0.297737	0	0	-0.384545	0.0175352	-0.0400517	0.521229	-0.520722	0.651918	1.13149	0.571186	0	0	0.31843	-0.469306	0.207852	1.05137	0.712534	0	0
1.77	0.0919656	1.27034	-1.62102	0.786666	-0.144574	1.09381	-0.119374	-0.125139	-0.04516	1.16781	-0.456494	0	0	-0.118601	-0.0565378	-0.36044	0.526729	-0.299984	0	0	-0.387782	0.0222932	-0.0434464	0.521969	-0.519183	0.648976	1.13088	0.574277	0	0	0.321001	-0.471016	0.209601	1.05256	0.709954	0	0
1.78	0.081964	1.26891	-1.60777	0.789926	-0.153361	1.09534	-0.102922	-0.115743	-0.0396129	1.18655	-0.412125	0	0	-0.129385	-0.0582429	-0.361744	0.52782	-0.303991	0	0	-0.390663	0.0271444	-0.047655	0.525764	-0.519331	0.653362	1.12943	0.564439	0	0	0.322526	-0.472474	0.21007	1.05356	0.709454	0	0
1.79	0.0718888	1.26745	-1.59408	0.793071	-0.162144	1.0969	-0.0869044	-0.105358	-0.0340944	1.20057	-0.376628	0	0	-0.140918	-0.0597411	-0.36242	0.527475	-0.306036	0	0	-0.393685	0.0318614	-0.0508226	0.525105	-0.518039	0.650202	1.12898	0.562912	0	0	0.325202	-0.473619	0.211997	1.05397	0.710669	0	0
1.8	0.0619421	1.26615	-1.58033	0.796083	-0.170913	1.09847	-0.0710649	-0.0939859	-0.0280704	1.21041	-0.341502	0	0	-0.152831	-0.0611968	-0.362563	0.525485	-0.308199	0	0	-0.396296	0.0364249	-0.0537476	0.523316	-0.51659	0.64614	1.12863	0.563198	0	0	0.328194	-0.475018	0.214786	1.05405	0.710275	0	0
